<svg version="1.2" xmlns="http://www.w3.org/2000/svg" viewBox="0 0 289 307" width="289" height="307">
	<title>spectral-crops</title>
	<style>
		.s0 { fill: #6ca83e } 
		.s1 { fill: #215b43 } 
		.s2 { fill: #3e6fa6 } 
		.s3 { fill: #7379ba } 
		.s4 { fill: #5183b9 } 
		.s5 { fill: #000000 } 
		.s6 { fill: #525c63 } 
	</style>
	<g>
		<g id="Camada_1">
			<path class="s0" d="m172.3 52.9c-39.9 30.1-67.4 68.9-80.4 117.8-14.7-2.9-27.9-8.5-39-18.6-6.8-6.2-11-14.2-12.6-23.2-2-11.3-0.7-22.4 2.5-33.3 1.1-3.6 2.3-7.1 3.7-11 21.6 3.3 38.6 13 48.5 34 0.3-4.9 0.5-9.1 0.8-13.3 0.8-13.7 6.1-25.7 14.2-36.5 12.7-16.8 29.9-27.8 49.1-35.4 10.8-4.2 22.2-6.9 33.3-10.3 0.8-0.2 1.7-0.3 2.5-0.4 19.2 60.6-10.4 125.8-91.6 147 4.9-22.6 4.9-57.9 24.5-73 18-13.7 22-28.7 44.5-43.8z"/>
			<path class="s1" d="m46.5 84.5c0 0 36.5 2.4 48.5 34.1 12 31.6 4.4 40.1 4.4 40.1l-7.5 12c0 0-42.1-7.8-49.6-34.6-7.6-26.9 4.2-51.6 4.2-51.6z"/>
			<path class="s0" d="m87.6 169.7c0 0-3.8-32.8-19.6-56.2 0 0 13.8 11.9 25.5 48.1 11.8 36.1-1.6 9.1-1.6 9.1l-4.3-1z"/>
			<path class="s2" d="m113.2 258.9c6.4-1.1 12.7-1.7 18.8-3.2 15.5-3.6 28.5-11.9 40.4-22.2 11.4-10 22.7-20.3 34.6-29.7 8.7-6.9 18.8-11.1 30.3-10.9 6.1 0.1 11.7 1.8 17.2 4.3 2.5 1.2 3.1 2.8 2.4 5.4-4.4 16.5-11.9 31.5-22.9 44.6-14.6 17.5-32.7 29.8-54.4 36.4-16.8 5-33.9 6.6-51.3 3.7-0.6-0.1-1.6-0.3-1.9-0.8-5.3-8.8-10.2-17.8-13.2-27.6z"/>
			<path class="s3" d="m103.3 212.5c0.5-8.7 0.8-17.1 1.5-25.5 0.1-0.9 2.1-2 3.3-2.2 24-4 44.2-15.9 62.8-30.8 15.5-12.5 27.4-27.9 34.5-46.5 3.3-8.5 5.2-17.5 7.7-26.3 12.5 2.9 42.7 48.2 42.9 65.4-5.5-0.8-11.1-2-16.7-2.4-22.2-1.2-41.4 6.2-58 20.9-12.2 10.8-24.1 22-36.8 32.2-10 8-21.8 12.8-34.5 15.1-1.8 0.4-3.7 0.1-6.7 0.1z"/>
			<path class="s4" d="m96 277.6c-20.5-9.6-36.2-23.7-48-42.1-16.1-25.4-21.6-53-16-81.2 3.2 2.6 7.1 5.4 10.6 8.7 11.5 10.5 24.9 17.1 40.2 20.3 7.4 1.6 6.7-0.5 5.6 7.5-2.6 19.7-2.1 39.3 1.5 58.8 1.7 9.1 3.9 18 6.1 28z"/>
			<path class="s3" d="m259.2 184.2c-3.9-1.2-7.2-2.2-10.6-3.1-12.5-3.3-24.5-1.3-36 4-9.8 4.4-17.8 11.3-25.9 18-14 11.6-27.3 24.3-43.7 32.7-10 5.2-20.8 6.9-31.7 8.3-2 0.3-3.2-0.4-3.5-2.6-0.8-4.3-1.7-8.5-2.5-12.5 7.1-1.8 13.9-3.2 20.4-5.2 14-4.3 25.7-12.6 36.6-22.2 10.4-9.2 20.4-18.9 31.1-27.9 8.2-6.9 18-11.1 28.5-13.5 11-2.4 21.8-1.9 32.6 1.3 3.1 0.9 5.1 2.1 4.8 6-0.4 5.3-0.1 10.7-0.1 16.7z"/>
			<path class="s5" d="m461.2 247.6q0 6.3 0 12.5 0 6.3 0 13h-10.9v-69h10.1v4.9c2.9-1.6 5.4-3.3 8-4.3 12.9-5.1 25.4 1.3 28.8 14.6 2 7.5 1.7 14.9-1.7 21.9-6.5 13.5-22.1 16.5-33 6.4-0.2-0.1-0.5 0-1.3 0zm-0.2-19.6c0.2 3.2-0.4 6.8 0.9 9.5 2.3 4.6 6.7 6.8 12 6.9 4.9 0.1 8.6-2 10.9-6.3 3-5.4 3.3-11.1 1.5-17-2.7-8.7-12.5-12-20.2-7-5.4 3.5-5.2 8.5-5.1 13.9z"/>
			<path class="s5" d="m361.3 157.1v26.3h-10.8v-69.9h9.6v5.4c0.8-0.2 1.6 0 1.9-0.4 6.8-7.2 15-7.5 23.4-4.2 8.6 3.3 11.9 10.9 12.7 19.6 0.8 9.1-0.7 17.6-7.9 24.3-7.5 7-19.9 6.8-27.3-0.4-0.3-0.2-0.7-0.3-1.6-0.7zm-0.1-18.7c0.2 2.7-0.6 6.6 0.9 9.2 2.7 4.8 7.6 7 13.3 6.5 5.5-0.5 8.9-3.7 10.8-8.6 2-5.2 1.9-10.6 0-15.8-3.3-9.3-15.9-11.4-22.7-4-3.5 3.7-1.6 8-2.3 12.7z"/>
			<path class="s5" d="m340.8 102.4c-2.1 2.3-4 4.5-6.1 6.8-5.7-4.7-12.3-7-19.6-5.2-2.9 0.8-6.1 2.7-7.8 5-2.9 4.1-0.7 9.6 4.4 11.5 3.7 1.5 7.8 1.9 11.4 3.4 4.9 1.9 9.9 4 14.1 7 6.6 4.7 6.6 17.3 0.2 23.9-8.5 8.8-19 10-30.3 7.2-5.5-1.4-10.5-3.8-14.5-8.2 2-2.6 3.8-5.1 5.2-7 4.7 2.3 9 4.9 13.8 6.4 4.5 1.4 9.3 1.1 13.8-1.1 3.6-1.9 5.2-5 5.1-8.9-0.1-3.5-2-6.2-5.3-7.5-3.3-1.3-6.8-2.1-10.3-3.2-3.1-0.9-6.2-1.8-9.2-3-6.4-2.4-10.2-7-10.7-13.9-0.4-7.4 2.2-13.3 8.7-17.4 10.7-6.5 28-4.7 37.1 4.2z"/>
			<path class="s5" d="m349.9 195.2c-2.5 2.3-4.9 4.5-7.5 6.9-5.2-5.5-11.7-8.1-19.3-7.1-10.3 1.5-16.7 7.9-18.8 18.4-2.1 10.9 1.6 21.7 9.3 26.7 9.3 6 22.1 4.1 30.2-4.6q3.2 3.4 6.4 6.7c-8.5 12.8-31.8 15.3-45.5 4.7-15-11.5-17-37.2-4.2-51.2 13.1-14.3 36.5-13.6 49.4-0.5z"/>
			<path class="s5" d="m454.2 140h-36.4c-0.6 5.5 1.6 10.7 6.3 12.8 7.6 3.6 14.7 2.2 21.3-3.2 1.9 1.9 3.9 3.7 6.1 5.8-8.3 7.9-17.7 9.4-27.9 6.7-9.2-2.4-15.1-8.6-16.9-18-2-10.6-0.1-20.3 9.2-27 8.3-6 17.4-6.4 26.5-1.9 6.5 3.3 9.9 9.2 11.1 16.3 0.4 2.7 0.4 5.5 0.7 8.5zm-36.3-7.4h24.5c0.1-7.6-3.7-11.9-10.7-12.1-8.3-0.3-13.4 4.1-13.8 12.1z"/>
			<path class="s5" d="m631.8 162.1h-9.7v-4.7c-2.5 1.5-4.5 3-6.8 4-5.7 2.6-11.6 2.7-17.4 0.1-5.6-2.6-8.9-8.2-8.4-14.6 0.5-6.1 3.8-10.3 9.7-11.8 4.4-1.2 9-1.8 13.5-2.3 2.8-0.3 5.7 0 8.5 0 1-5.1-0.3-8.8-4-10.8-4.2-2.2-13.7-2.9-20.9 4.5q-2.1-3.7-4-7.3c8.1-7.9 23.6-9.1 32.7-3.1 5.7 3.8 6.6 9.6 6.8 15.4 0.3 10.1 0 20.3 0 30.6zm-10.1-22.8c-5.4 0.3-10.3 0.2-15.2 0.8-4.1 0.5-6.5 3.4-6.6 6.9-0.1 3.8 2.1 6.5 6.2 7.7 4.8 1.3 8.7-0.5 12.6-3.1 4.4-3 2.7-7.4 3-12.3z"/>
			<path class="s5" d="m417.1 203.1c14.5 0.2 24.8 11 24.6 25.7-0.2 14-11.1 24.7-24.8 24.5-14.8-0.2-25.3-11.1-25.2-26.2 0.1-14.1 10.8-24.2 25.4-24zm13.4 24.7c0-11.5-6.1-17.3-16.7-15.8-6.3 0.8-9.8 5.3-10.8 14-1.1 8.8 2.5 15.8 9.3 17.8 10.5 3.2 18.2-3.5 18.2-16z"/>
			<path class="s5" d="m506 121c-2.1 2-4.1 3.9-6.3 6-3.9-3.9-8.6-6.6-14.2-5.4-3.3 0.7-6.9 2.3-9.3 4.7-5.6 5.5-5 18.2 0.6 24 5.8 6 15 5.4 23.7-1.9q3 3.1 6.1 6.3c-12.8 11.3-29 11.4-39.1 0.3-8.8-9.7-7.9-27 1.7-36 10.2-9.4 26.8-8.6 36.8 2z"/>
			<path class="s5" d="m540.7 209.6c-1.5 2.1-2.8 4-4.2 6-3.8-3.3-8-5.3-13.1-4.9-1.2 0-2.5 0.2-3.6 0.6-2.5 0.7-4.6 2.4-4.1 5 0.4 1.8 2.1 4.2 3.7 4.8 5 2 10.4 2.8 15.3 4.8 8.3 3.4 10.6 13 5.3 20.2-3.4 4.7-8.4 6.6-13.8 7.2-6.7 0.6-14.4 0.2-21.4-7.5 1.6-1.8 3.3-3.6 5.1-5.6 4.5 4.4 9.8 5.7 15.8 5.1 3.3-0.4 6.1-1.4 6.6-5.3 0.5-3.4-1.2-5.7-5.2-7-3.6-1.1-7.3-1.7-10.8-3-7.2-2.7-10.3-7-10-13.5 0.3-6.4 4.4-11.2 11.7-12.8 8.3-1.8 16.1-0.5 22.7 5.9z"/>
			<path class="s5" d="m544.8 153.8c0.1 2.6 0.3 4.9 0.4 7.5-4.8 1.8-9.7 2.2-14.6 0.8-5.2-1.5-7.7-5.5-7.9-10.6-0.4-9-0.3-17.9-0.5-26.9 0-0.9 0-1.7 0-2.8h-8.4v-8.3h8.2v-14.3h10.9v14h12.7v8.4h-12.5c0 6.6 0 12.9 0 19.2q0 0.6 0 1.2 0 11.4 11.7 11.8z"/>
			<path class="s5" d="m642.6 91.5h10.7v70.6h-10.7z"/>
			<path class="s5" d="m566.1 162.2h-10.9v-48.7h10.7v6.5c7.3-7.3 11.9-8.7 19.6-6.2-0.6 3.3-1.1 6.7-1.6 9.7-2.9 0-5.7-0.4-8.3 0-5.5 1-9.5 6.2-9.5 11.8-0.1 9 0 18 0 26.9z"/>
			<path class="s5" d="m358.4 204.1h10.7v6.8c5.7-6.2 11.7-9.4 19.7-6.5q-0.9 5.1-1.8 10.4c-8.5-3.2-18.2 1.5-17.8 13.6 0.3 7.9 0.1 15.9 0.1 24.1h-10.9c0 0 0-48.4 0-48.4z"/>
			<path class="s6" d="m96 277.6c0 0-49.7-133.1 76.3-224.7 0 0-113 105.8-45.9 233.6 0 0-12.6-1.6-30.4-8.9z"/>
		</g>
	</g>
</svg>