<?xml version="1.0" encoding="UTF-8"?>
<svg xmlns="http://www.w3.org/2000/svg" version="1.1" viewBox="0 0 819.21 371.46">
  <defs>
    <style>
      .cls-1 {
        fill: #6ca83e;
      }

      .cls-2 {
        fill: #7379ba;
      }

      .cls-3 {
        fill: #525c63;
      }

      .cls-4 {
        fill: #215b43;
      }

      .cls-5 {
        fill: #5183b9;
      }

      .cls-6 {
        fill: #3e6fa6;
      }
    </style>
  </defs>
  <!-- Generator: Adobe Illustrator 28.7.8, SVG Export Plug-In . SVG Version: 1.2.0 Build 200)  -->
  <g>
    <g id="Camada_1">
      <path class="cls-1" d="M240.34,82.9c-39.97,30.09-67.4,68.88-80.45,117.81-14.7-2.87-27.88-8.55-38.95-18.6-6.88-6.24-10.99-14.21-12.6-23.25-1.99-11.24-.69-22.38,2.49-33.29,1.04-3.57,2.32-7.08,3.63-11.02,21.67,3.37,38.66,13.08,48.52,34.03.3-4.84.56-9.05.81-13.25.81-13.71,6.09-25.73,14.23-36.53,12.69-16.85,29.87-27.79,49.12-35.4,10.76-4.25,22.13-6.93,33.24-10.29.81-.24,1.68-.27,2.49-.4,19.26,60.58-10.38,125.74-91.55,147.01,4.92-22.62,4.89-57.96,24.53-73.01,17.97-13.76,21.98-28.72,44.49-43.81Z"/>
      <path class="cls-4" d="M114.47,114.54s36.55,2.37,48.52,34.03,4.4,40.11,4.4,40.11l-7.5,12.03s-42.12-7.8-49.64-34.66,4.22-51.51,4.22-51.51Z"/>
      <path class="cls-1" d="M155.55,199.71s-3.75-32.78-19.57-56.17c0,0,13.84,11.89,25.56,48.02s-1.64,9.15-1.64,9.15l-4.34-1Z"/>
      <path class="cls-6" d="M181.17,288.9c6.44-1.06,12.73-1.72,18.83-3.17,15.47-3.66,28.52-11.88,40.37-22.25,11.44-10.02,22.68-20.31,34.6-29.72,8.69-6.86,18.85-11.04,30.32-10.83,6.06.11,11.7,1.77,17.18,4.32,2.57,1.2,3.09,2.75,2.41,5.31-4.41,16.56-11.92,31.54-22.89,44.69-14.56,17.45-32.67,29.79-54.44,36.35-16.73,5.04-33.84,6.63-51.21,3.7-.67-.11-1.61-.3-1.9-.78-5.34-8.82-10.27-17.84-13.27-27.63Z"/>
      <path class="cls-2" d="M171.32,242.5c.45-8.69.79-17.12,1.47-25.53.07-.83,2.1-1.97,3.35-2.18,23.99-4,44.15-15.85,62.73-30.78,15.52-12.47,27.38-27.9,34.58-46.52,3.27-8.46,5.17-17.46,7.7-26.26,12.43,2.91,42.6,48.16,42.9,65.42-5.56-.82-11.12-2.08-16.74-2.4-22.23-1.28-41.4,6.17-57.97,20.87-12.2,10.83-24.18,21.94-36.88,32.15-9.97,8.01-21.75,12.88-34.43,15.18-1.8.33-3.72.05-6.72.05Z"/>
      <path class="cls-5" d="M164.04,307.62c-20.49-9.6-36.23-23.69-48-42.16-16.17-25.39-21.64-52.93-16.07-81.14,3.22,2.6,7.1,5.42,10.61,8.63,11.54,10.56,24.95,17.13,40.25,20.35,7.42,1.56,6.63-.53,5.58,7.48-2.56,19.68-2.14,39.32,1.48,58.83,1.68,9.04,3.93,17.98,6.15,28.01Z"/>
      <path class="cls-2" d="M327.21,214.18c-3.89-1.15-7.23-2.22-10.61-3.12-12.52-3.31-24.46-1.24-36.04,4.01-9.73,4.41-17.71,11.31-25.84,18.05-14.02,11.62-27.29,24.23-43.69,32.69-9.98,5.15-20.79,6.85-31.7,8.31-2.07.28-3.2-.4-3.57-2.64-.71-4.28-1.68-8.52-2.49-12.52,7.11-1.77,13.89-3.14,20.48-5.18,13.98-4.32,25.7-12.6,36.54-22.14,10.46-9.2,20.45-18.95,31.11-27.92,8.21-6.9,17.98-11.13,28.49-13.48,10.97-2.46,21.83-1.97,32.61,1.21,3.12.92,5.13,2.13,4.81,6.08-.43,5.31-.11,10.68-.11,16.65Z"/>
      <path d="M529.21,277.65c0,4.14,0,8.31,0,12.48s0,8.48,0,12.99h-10.88v-69.07h10.1v4.92c2.9-1.59,5.33-3.27,8-4.32,12.89-5.05,25.37,1.32,28.81,14.65,1.94,7.48,1.62,14.86-1.76,21.91-6.44,13.44-22.13,16.44-33.03,6.39-.12-.11-.47,0-1.25.05ZM528.95,257.97c.26,3.2-.33,6.82.97,9.51,2.24,4.6,6.68,6.82,11.94,6.91,4.89.09,8.6-1.97,10.95-6.28,2.96-5.43,3.24-11.14,1.45-16.99-2.68-8.75-12.48-12.02-20.17-7.03-5.37,3.48-5.21,8.55-5.14,13.87Z"/>
      <path d="M429.27,187.07v26.36h-10.77v-69.9h9.6v5.34c.84-.13,1.63,0,1.94-.34,6.73-7.21,14.99-7.52,23.34-4.28,8.6,3.34,11.93,10.92,12.72,19.61.83,9.16-.71,17.68-7.86,24.33-7.52,6.98-19.97,6.82-27.37-.37-.25-.24-.65-.32-1.59-.75ZM429.17,168.41c.2,2.69-.57,6.58.92,9.2,2.7,4.77,7.59,7,13.33,6.49,5.46-.48,8.84-3.7,10.72-8.6,2-5.21,1.94-10.57.07-15.77-3.37-9.36-15.9-11.4-22.72-4.06-3.49,3.76-1.64,8.03-2.32,12.72Z"/>
      <path d="M408.78,132.42c-2.09,2.33-4,4.46-6.12,6.83-5.65-4.73-12.23-7.1-19.53-5.21-2.88.75-6.1,2.63-7.81,4.98-2.95,4.06-.68,9.54,4.4,11.53,3.67,1.44,7.76,1.84,11.41,3.32,4.84,1.97,9.84,4,14.05,7.01,6.66,4.76,6.64,17.32.26,23.9-8.53,8.79-19.07,9.98-30.37,7.2-5.48-1.35-10.47-3.77-14.43-8.17,1.91-2.58,3.74-5.06,5.18-7,4.72,2.26,9.03,4.94,13.73,6.42,4.52,1.42,9.37,1.09,13.84-1.14,3.66-1.84,5.17-5.01,5.11-8.87-.06-3.55-2.01-6.25-5.26-7.53-3.34-1.31-6.89-2.09-10.33-3.15-3.08-.95-6.19-1.86-9.21-2.99-6.42-2.41-10.21-7.02-10.66-13.94-.48-7.4,2.2-13.34,8.71-17.36,10.67-6.58,27.91-4.78,37.03,4.16Z"/>
      <path d="M417.85,225.16c-2.48,2.31-4.84,4.51-7.42,6.91-5.25-5.49-11.74-8.08-19.34-7.03-10.32,1.43-16.73,7.84-18.8,18.39-2.14,10.9,1.61,21.62,9.31,26.63,9.31,6.06,22.09,4.17,30.15-4.52,2.14,2.22,4.27,4.44,6.43,6.69-8.47,12.81-31.79,15.28-45.5,4.71-14.99-11.55-17-37.25-4.16-51.27,13.05-14.25,36.43-13.57,49.35-.5Z"/>
      <path d="M522.17,170.02h-36.33c-.68,5.5,1.55,10.63,6.24,12.81,7.61,3.54,14.74,2.19,21.3-3.21,1.96,1.83,3.94,3.68,6.17,5.75-8.33,7.94-17.76,9.44-27.97,6.72-9.19-2.44-15.09-8.56-16.85-17.97-1.98-10.59-.17-20.32,9.15-27.02,8.3-5.97,17.46-6.41,26.52-1.86,6.51,3.27,9.95,9.13,11.07,16.28.42,2.69.46,5.44.7,8.5ZM485.91,162.61h24.5c.1-7.65-3.76-11.93-10.7-12.15-8.32-.27-13.37,4.18-13.8,12.15Z"/>
      <path d="M699.83,192.08h-9.77v-4.64c-2.44,1.45-4.51,2.93-6.78,3.97-5.73,2.62-11.6,2.69-17.35.1-5.68-2.57-8.97-8.26-8.44-14.59.51-6.09,3.8-10.31,9.69-11.87,4.41-1.16,9-1.72,13.54-2.23,2.82-.32,5.7-.06,8.49-.06,1.01-5.02-.35-8.78-4.06-10.76-4.2-2.24-13.63-2.9-20.9,4.52-1.37-2.51-2.7-4.93-3.98-7.28,8.14-7.93,23.66-9.17,32.74-3.1,5.65,3.78,6.56,9.52,6.74,15.38.31,10.11.09,20.23.09,30.57ZM689.68,169.28c-5.37.27-10.33.25-15.22.85-4.12.5-6.51,3.37-6.61,6.87-.11,3.76,2.18,6.52,6.28,7.67,4.76,1.32,8.7-.45,12.53-3.05,4.47-3.03,2.72-7.48,3.01-12.33Z"/>
      <path d="M485.09,233.07c14.51.2,24.84,11,24.61,25.73-.23,13.97-11.06,24.67-24.78,24.48-14.79-.2-25.32-11.12-25.22-26.17.09-14.1,10.8-24.25,25.4-24.05ZM498.49,257.85c0-11.5-6.1-17.3-16.72-15.87-6.24.84-9.73,5.37-10.81,14.04-1.09,8.79,2.55,15.77,9.29,17.8,10.56,3.18,18.23-3.53,18.24-15.97Z"/>
      <path d="M574.03,150.98c-2.17,2.05-4.16,3.93-6.33,5.98-3.89-3.86-8.61-6.53-14.17-5.38-3.33.69-6.95,2.34-9.34,4.68-5.63,5.52-4.97,18.24.63,24.05,5.79,6,14.94,5.34,23.65-1.88,2.04,2.06,4.09,4.15,6.16,6.23-12.78,11.3-29.07,11.41-39.12.35-8.77-9.66-7.95-27.01,1.72-35.99,10.16-9.45,26.79-8.65,36.8,1.96Z"/>
      <path d="M608.69,239.58c-1.5,2.16-2.78,4-4.17,6.01-3.79-3.24-8.04-5.26-13.1-4.93-1.23.08-2.48.25-3.66.59-2.5.72-4.59,2.4-4.03,5.02.4,1.85,2.03,4.2,3.7,4.86,4.94,1.96,10.33,2.79,15.25,4.81,8.28,3.4,10.58,12.98,5.3,20.2-3.43,4.69-8.39,6.59-13.82,7.11-6.64.64-14.4.2-21.37-7.48,1.64-1.78,3.29-3.59,5.09-5.54,4.48,4.41,9.86,5.71,15.82,5.03,3.29-.38,6.11-1.4,6.63-5.26.46-3.42-1.21-5.73-5.26-6.99-3.55-1.1-7.27-1.73-10.74-3.02-7.28-2.71-10.31-7.02-10-13.52.3-6.38,4.34-11.16,11.64-12.76,8.31-1.82,16.08-.56,22.72,5.87Z"/>
      <path d="M612.81,183.79c.14,2.6.27,4.95.42,7.51-4.84,1.85-9.71,2.21-14.61.82-5.23-1.49-7.73-5.51-7.95-10.6-.39-8.97-.3-17.96-.42-26.94-.01-.86,0-1.71,0-2.77h-8.41v-8.3h8.19v-14.28h10.88v13.98h12.7v8.38h-12.5c0,6.61,0,12.94,0,19.26,0,.37,0,.75,0,1.12q0,11.43,11.7,11.8Z"/>
      <path d="M710.56,121.52h10.79v70.62h-10.79v-70.62Z"/>
      <path d="M634.07,192.18h-10.88v-48.7h10.72v6.48c7.32-7.22,11.88-8.68,19.58-6.17-.56,3.31-1.13,6.69-1.63,9.66-2.86,0-5.67-.4-8.31.08-5.44.99-9.44,6.19-9.47,11.81-.05,8.96-.01,17.93-.01,26.82Z"/>
      <path d="M426.41,234.08h10.66v6.78c5.73-6.2,11.7-9.37,19.74-6.47-.57,3.37-1.17,6.85-1.77,10.4-8.5-3.15-18.22,1.53-17.84,13.56.25,7.97.05,15.95.05,24.1h-10.84v-48.38Z"/>
      <path class="cls-3" d="M164.04,307.62s-49.78-133.11,76.3-224.72c0,0-113.01,105.78-45.91,233.63,0,0-12.64-1.67-30.39-8.91Z"/>
    </g>
  </g>
</svg>